<?xml version="1.0" standalone="no"?>
<!DOCTYPE svg PUBLIC "-//W3C//DTD SVG 20010904//EN"
 "http://www.w3.org/TR/2001/REC-SVG-20010904/DTD/svg10.dtd">
<svg version="1.0" xmlns="http://www.w3.org/2000/svg"
 width="260.000000pt" height="260.000000pt" viewBox="0 0 260.000000 260.000000"
 preserveAspectRatio="xMidYMid meet">
<metadata>
Created by potrace 1.15, written by Peter Selinger 2001-2017
</metadata>
<g transform="translate(0.000000,260.000000) scale(0.100000,-0.100000)"
fill="#000000" stroke="none">
<path d="M1163 2430 c-74 -15 -155 -61 -219 -124 -95 -96 -134 -201 -134 -363
l0 -73 185 0 185 0 0 -40 0 -40 -185 0 -185 0 0 -40 0 -40 185 0 185 0 0 -40
0 -40 -182 -2 -183 -3 0 -40 0 -40 180 -2 180 -2 0 -38 0 -38 -183 -3 -183 -2
3 -38 3 -37 183 -3 182 -2 0 -40 0 -40 -185 0 -185 0 0 -117 c0 -194 36 -298
137 -399 97 -98 248 -147 381 -124 125 21 243 98 307 201 51 80 67 143 72 297
l6 142 -187 0 -186 0 0 40 0 40 183 2 182 3 3 37 3 38 -183 2 -183 3 -3 37 -3
38 183 2 183 3 0 40 0 40 -182 3 -183 2 0 40 0 40 186 0 185 0 -3 38 -3 37
-182 3 -183 2 0 40 0 40 185 0 185 0 0 63 c0 101 -18 187 -55 264 -87 177
-289 273 -492 233z"/>
<path d="M650 1128 c0 -51 7 -124 15 -163 46 -217 227 -404 445 -459 l55 -13
3 -121 3 -121 -48 -6 c-142 -20 -267 -62 -319 -107 -68 -60 -82 -58 461 -58
535 0 524 -1 468 52 -54 50 -162 88 -310 108 l-93 13 0 118 0 119 28 5 c121
26 227 78 315 155 49 43 125 150 151 213 26 63 46 181 46 272 l0 85 -45 0 -45
0 0 -95 c0 -181 -41 -289 -154 -400 -113 -112 -216 -155 -373 -155 -147 0
-291 63 -384 168 -94 107 -129 200 -136 365 l-6 117 -38 0 -39 0 0 -92z"/>
</g>
</svg>
