<?xml version="1.0" standalone="no"?>
<!DOCTYPE svg PUBLIC "-//W3C//DTD SVG 20010904//EN"
 "http://www.w3.org/TR/2001/REC-SVG-20010904/DTD/svg10.dtd">
<svg version="1.0" xmlns="http://www.w3.org/2000/svg"
 width="131.000000pt" height="179.000000pt" viewBox="0 0 131.000000 179.000000"
 preserveAspectRatio="xMidYMid meet">
<metadata>
Created by potrace 1.15, written by Peter Selinger 2001-2017
</metadata>
<g transform="translate(0.000000,179.000000) scale(0.100000,-0.100000)"
fill="#000000" stroke="none">
<path d="M71 1777 c-13 -6 -34 -25 -45 -40 -21 -28 -21 -34 -24 -830 -2 -748
-1 -804 15 -837 25 -49 83 -77 133 -64 34 10 1108 780 1139 818 8 9 16 39 19
65 4 45 1 52 -29 84 -28 30 -437 331 -1002 739 -115 83 -151 94 -206 65z"/>
</g>
</svg>
