<?xml version="1.0" standalone="no"?>
<!DOCTYPE svg PUBLIC "-//W3C//DTD SVG 20010904//EN"
 "http://www.w3.org/TR/2001/REC-SVG-20010904/DTD/svg10.dtd">
<svg version="1.0" xmlns="http://www.w3.org/2000/svg"
 width="820.000000pt" height="512.000000pt" viewBox="0 0 820.000000 512.000000"
 preserveAspectRatio="xMidYMid meet">

<g transform="translate(0.000000,512.000000) scale(0.100000,-0.100000)"
fill="#000000" stroke="none">
<path d="M4027 5019 c-562 -40 -1068 -257 -1497 -641 -78 -70 -246 -250 -271
-290 -4 -6 -127 59 -280 148 -416 240 -423 244 -431 244 -5 0 -8 -525 -8
-1166 0 -1072 1 -1166 16 -1160 9 4 466 266 1016 582 863 498 996 578 981 589
-10 6 -157 92 -326 190 l-308 178 48 50 c245 252 587 433 939 498 149 27 397
29 549 5 402 -66 758 -263 1023 -566 301 -344 452 -801 414 -1253 -15 -172
-32 -256 -83 -410 -163 -489 -556 -891 -1039 -1062 -149 -53 -349 -95 -455
-95 -27 0 -67 -3 -87 -6 l-38 -7 0 -373 c0 -214 4 -375 9 -378 14 -9 282 12
391 30 135 22 341 77 465 124 330 126 593 293 848 540 222 214 371 418 502
685 118 240 190 474 231 740 25 165 26 522 1 685 -69 451 -248 862 -524 1205
-101 126 -310 328 -433 421 -399 298 -836 460 -1330 494 -159 11 -166 11 -323
-1z"/>
</g>
</svg>
