<?xml version="1.0" standalone="no"?>
<!DOCTYPE svg PUBLIC "-//W3C//DTD SVG 20010904//EN"
 "http://www.w3.org/TR/2001/REC-SVG-20010904/DTD/svg10.dtd">
<svg version="1.0" xmlns="http://www.w3.org/2000/svg"
 width="820.000000pt" height="512.000000pt" viewBox="0 0 820.000000 512.000000"
 preserveAspectRatio="xMidYMid meet">
<metadata>
Created by potrace 1.15, written by Peter Selinger 2001-2017
</metadata>
<g transform="translate(0.000000,512.000000) scale(0.100000,-0.100000)"
fill="#000000" stroke="none">
<path d="M3888 5005 c-399 -55 -735 -181 -1063 -400 -189 -126 -358 -276 -505
-446 -36 -41 -70 -73 -76 -73 -6 1 -165 90 -352 198 -187 108 -343 196 -346
196 -3 0 -6 -525 -6 -1166 0 -929 3 -1165 13 -1161 11 4 1974 1134 2005 1154
8 5 -72 56 -230 147 -134 77 -281 162 -327 189 l-83 49 63 65 c249 252 574
422 939 489 115 21 395 24 515 5 274 -43 529 -145 744 -299 580 -413 843
-1130 667 -1819 -118 -461 -439 -864 -866 -1087 -219 -114 -427 -171 -702
-192 l-88 -6 0 -374 0 -374 85 0 c201 0 460 46 691 121 744 245 1341 849 1578
1597 78 247 111 470 110 752 0 217 -14 339 -59 540 -103 460 -345 886 -692
1220 -391 377 -876 609 -1413 676 -142 17 -469 17 -602 -1z"/>
</g>
</svg>
