<?xml version="1.0" standalone="no"?>
<!DOCTYPE svg PUBLIC "-//W3C//DTD SVG 20010904//EN"
 "http://www.w3.org/TR/2001/REC-SVG-20010904/DTD/svg10.dtd">
<svg version="1.0" xmlns="http://www.w3.org/2000/svg"
 width="266.000000pt" height="266.000000pt" viewBox="0 0 266.000000 266.000000"
 preserveAspectRatio="xMidYMid meet">
<metadata>
Created by potrace 1.15, written by Peter Selinger 2001-2017
</metadata>
<g transform="translate(0.000000,266.000000) scale(0.100000,-0.100000)"
fill="#000000" stroke="none">
<path d="M155 2641 c-50 -22 -99 -70 -128 -125 l-22 -41 -3 -1119 c-3 -1274
-8 -1191 78 -1276 85 -86 2 -81 1276 -78 l1119 3 41 22 c55 29 103 78 125 128
18 38 19 98 19 1179 l0 1139 -22 43 c-25 51 -68 94 -123 123 -40 21 -41 21
-1180 21 -1082 0 -1142 -1 -1180 -19z"/>
</g>
</svg>
